# xmcd
#
# Track frame offsets:
#	150
#	12984
#	28440
#	40516
#	53932
#	66660
#	80005
#	93968
#	107494
#	121004
#	134097
#	147413
#	160543
#	174694
#
# Disc length: 2527 seconds
#
# Revision: 0
# Processed by: cddbd v1.5.2PL0 Copyright (c) Steve Scherf et al.
# Submitted via: EasyCDDAExtractor 11.1.0.1
#
DISCID=c209dd0e
DTITLE=Bo Carter - Banana In Your Fruit Basket
DYEAR=1978
DGENRE=Blues
TTITLE0=Pig Meat Is What I Crave
TTITLE1=What Kind Of Scent Is This?
TTITLE2=Mashing That Thing
TTITLE3=Blue Runner Blues
TTITLE4=Howling Tom Cat Blues
TTITLE5=Don't Mash My Digger So Deep
TTITLE6=Pin In Your Cushion
TTITLE7=Ram Rod Daddy
TTITLE8=All Around Man
TTITLE9=Pussy Cat Blues
TTITLE10=My Pencil Won't Write No More
TTITLE11=Ants In my Pants
TTITLE12=Banana In Your Fruit Basket
TTITLE13=Cigarette Blues
EXTD=
EXTT0=
EXTT1=
EXTT2=
EXTT3=
EXTT4=
EXTT5=
EXTT6=
EXTT7=
EXTT8=
EXTT9=
EXTT10=
EXTT11=
EXTT12=
EXTT13=
PLAYORDER=
